<?xml version="1.0" standalone="no"?>
<!DOCTYPE svg PUBLIC "-//W3C//DTD SVG 20010904//EN"
 "http://www.w3.org/TR/2001/REC-SVG-20010904/DTD/svg10.dtd">
<svg version="1.0" xmlns="http://www.w3.org/2000/svg"
 width="300.000000pt" height="301.000000pt" viewBox="0 0 300.000000 301.000000"
 preserveAspectRatio="xMidYMid meet">

<g transform="translate(0.000000,301.000000) scale(0.100000,-0.100000)"
fill="#000000" stroke="none">
<path d="M33 2963 c19 -27 274 -390 567 -808 293 -418 541 -772 552 -787 l19
-28 -573 -652 c-316 -359 -577 -659 -582 -665 -6 -10 21 -13 122 -13 l129 0
509 579 c279 319 511 578 515 575 4 -2 188 -263 410 -579 l404 -575 442 0
c244 0 443 3 443 6 0 3 -268 388 -596 856 -328 467 -597 856 -598 863 0 7 233
280 520 607 286 326 535 610 553 631 l33 37 -133 -1 -134 0 -480 -549 c-264
-302 -482 -549 -485 -549 -3 -1 -178 246 -390 549 l-385 549 -448 1 -449 0 35
-47z m1663 -1450 c509 -713 928 -1303 931 -1310 4 -10 -34 -13 -194 -13 l-200
0 -929 1302 c-511 716 -930 1305 -932 1310 -2 4 87 8 197 8 l200 0 927 -1297z"/>
</g>
</svg>
